{"title":"2 Broke Girls_S01_E03_And Strokes of Goodwill_1080i","uid":6722995,"size":581057885,"categoryP":"video","categoryS":"hd___tv_shows","magnet":"?xt=urn:btih:de3dac4704619be68a90cd336d14cc70549a13a6&amp;dn=2+Broke+Girls_S01_E03_And+Strokes+of+Goodwill_1080i&amp;tr=udp%3A%2F%2Ftracker.openbittorrent.com%3A80&amp;tr=udp%3A%2F%2Fopen.demonii.com%3A1337&amp;tr=udp%3A%2F%2Ftracker.coppersurfer.tk%3A6969&amp;tr=udp%3A%2F%2Fexodus.desync.com%3A6969","seeders":0,"leechers":1,"uploader":"blisbell","files":1,"time":1317848357,"description":"Format profile                   : &lt;a class=&quot;__cf_email__&quot; href=&quot;/cdn-cgi/l/email-protection&quot; data-cfemail=&quot;92dafbf5fad2dea6bca2&quot;&gt;[email&amp;#160;protected]&lt;/a&gt;&lt;script data-cfhash='f9e31' type=&quot;text/javascript&quot;&gt;\n/* &lt;![CDATA[ */!function(){try{var t=&quot;currentScript&quot;in document?document.currentScript:function(){for(var t=document.getElementsByTagName(&quot;script&quot;),e=t.length;e--;)if(t[e].getAttribute(&quot;data-cfhash&quot;))return t[e]}();if(t&amp;&amp;t.previousSibling){var e,r,n,i,c=t.previousSibling,a=c.getAttribute(&quot;data-cfemail&quot;);if(a){for(e=&quot;&quot;,r=parseInt(a.substr(0,2),16),n=2;a.length-n;n+=2)i=parseInt(a.substr(n,2),16)^r,e+=String.fromCharCode(i);e=document.createTextNode(e),c.parentNode.replaceChild(e,c)}t.parentNode.removeChild(t);}}catch(u){}}()/* ]]&gt; */&lt;/script&gt;\nFormat settings, CABAC           : Yes\nFormat settings, ReFrames        : 4 frames\nCodec ID                         : V_MPEG4/ISO/AVC\nDuration                         : 21mn 4s\nBit rate                         : 3 220 Kbps\nWidth                            : 1 920 pixels\nHeight                           : 1 088 pixels\nDisplay aspect ratio             : 16:9\nFrame rate mode                  : Variable\nFrame rate                       : 29.970 fps\nColor space                      : YUV\nChroma subsampling               : 4:2:0\nBit depth                        : 8 bits\nScan type                        : Progressive\nBits/(Pixel*Frame)               : 0.051\nStream size                      : 485 MiB (88%)\nWriting library                  : x264 core 118 r2085 8a62835\n\nFormat                           : AC-3\nFormat/Info                      : Audio Coding 3\nMode extension                   : CM (complete main)\nCodec ID                         : A_AC3\nDuration                         : 21mn 4s\nBit rate mode                    : Constant\nBit rate                         : 384 Kbps\nChannel(s)                       : 6 channels\nChannel positions                : Front: L C R, Side: L R, LFE\nSampling rate                    : 48.0 KHz\nBit depth                        : 16 bits\nCompression mode                 : Lossy\nDelay relative to video          : -1mn 5s\nStream size                      : 57.9 MiB (10%)\nLanguage                         : English","torrent":{"xt":"urn:btih:de3dac4704619be68a90cd336d14cc70549a13a6","amp;dn":"2+Broke+Girls_S01_E03_And+Strokes+of+Goodwill_1080i","amp;tr":["udp%3A%2F%2Ftracker.openbittorrent.com%3A80","udp%3A%2F%2Fopen.demonii.com%3A1337","udp%3A%2F%2Ftracker.coppersurfer.tk%3A6969","udp%3A%2F%2Fexodus.desync.com%3A6969"],"infoHash":"de3dac4704619be68a90cd336d14cc70549a13a6","infoHashBuffer":{"type":"Buffer","data":[222,61,172,71,4,97,155,230,138,144,205,51,109,20,204,112,84,154,19,166]},"announce":[],"urlList":[]}}